<svg height="1726" width="720" xmlns="http://www.w3.org/2000/svg">
<rect height="1726" fill="#555" width="720"></rect>
<text fill="#7f7" font-family="Courier New" font-size="12" xml:space="preserve">
<tspan x="10" y="26">└─┬ wd@1.2.0 </tspan>
<tspan x="10" y="42">  ├─┬ archiver@1.3.0 </tspan>
<tspan x="10" y="58">  │ ├─┬ archiver-utils@1.3.0 </tspan>
<tspan x="10" y="74">  │ │ ├── graceful-fs@4.1.11 </tspan>
<tspan x="10" y="90">  │ │ ├── lazystream@1.0.0 </tspan>
<tspan x="10" y="106">  │ │ └─┬ normalize-path@2.1.1 </tspan>
<tspan x="10" y="122">  │ │   └── remove-trailing-separator@1.0.1 </tspan>
<tspan x="10" y="138">  │ ├── buffer-crc32@0.2.13 </tspan>
<tspan x="10" y="154">  │ ├─┬ glob@7.1.1 </tspan>
<tspan x="10" y="170">  │ │ ├── fs.realpath@1.0.0 </tspan>
<tspan x="10" y="186">  │ │ ├─┬ inflight@1.0.6 </tspan>
<tspan x="10" y="202">  │ │ │ └── wrappy@1.0.2 </tspan>
<tspan x="10" y="218">  │ │ ├── inherits@2.0.3 </tspan>
<tspan x="10" y="234">  │ │ ├─┬ minimatch@3.0.3 </tspan>
<tspan x="10" y="250">  │ │ │ └─┬ brace-expansion@1.1.6 </tspan>
<tspan x="10" y="266">  │ │ │   ├── balanced-match@0.4.2 </tspan>
<tspan x="10" y="282">  │ │ │   └── concat-map@0.0.1 </tspan>
<tspan x="10" y="298">  │ │ ├── once@1.4.0 </tspan>
<tspan x="10" y="314">  │ │ └── path-is-absolute@1.0.1 </tspan>
<tspan x="10" y="330">  │ ├─┬ readable-stream@2.2.6 </tspan>
<tspan x="10" y="346">  │ │ ├── buffer-shims@1.0.0 </tspan>
<tspan x="10" y="362">  │ │ ├── core-util-is@1.0.2 </tspan>
<tspan x="10" y="378">  │ │ ├── isarray@1.0.0 </tspan>
<tspan x="10" y="394">  │ │ ├── process-nextick-args@1.0.7 </tspan>
<tspan x="10" y="410">  │ │ └── string_decoder@0.10.31 </tspan>
<tspan x="10" y="426">  │ ├─┬ tar-stream@1.5.2 </tspan>
<tspan x="10" y="442">  │ │ ├── bl@1.2.0 </tspan>
<tspan x="10" y="458">  │ │ ├── end-of-stream@1.4.0 </tspan>
<tspan x="10" y="474">  │ │ └── xtend@4.0.1 </tspan>
<tspan x="10" y="490">  │ ├── walkdir@0.0.11 </tspan>
<tspan x="10" y="506">  │ └─┬ zip-stream@1.1.1 </tspan>
<tspan x="10" y="522">  │   └─┬ compress-commons@1.2.0 </tspan>
<tspan x="10" y="538">  │     └─┬ crc32-stream@2.0.0 </tspan>
<tspan x="10" y="554">  │       └── crc@3.4.4 </tspan>
<tspan x="10" y="570">  ├── async@2.0.1 </tspan>
<tspan x="10" y="586">  ├── lodash@4.16.2 </tspan>
<tspan x="10" y="602">  ├─┬ mkdirp@0.5.1 </tspan>
<tspan x="10" y="618">  │ └── minimist@0.0.8 </tspan>
<tspan x="10" y="634">  ├── q@1.4.1 </tspan>
<tspan x="10" y="650">  ├─┬ request@2.79.0 </tspan>
<tspan x="10" y="666">  │ ├── aws-sign2@0.6.0 </tspan>
<tspan x="10" y="682">  │ ├── aws4@1.6.0 </tspan>
<tspan x="10" y="698">  │ ├── caseless@0.11.0 </tspan>
<tspan x="10" y="714">  │ ├─┬ combined-stream@1.0.5 </tspan>
<tspan x="10" y="730">  │ │ └── delayed-stream@1.0.0 </tspan>
<tspan x="10" y="746">  │ ├── extend@3.0.0 </tspan>
<tspan x="10" y="762">  │ ├── forever-agent@0.6.1 </tspan>
<tspan x="10" y="778">  │ ├─┬ form-data@2.1.2 </tspan>
<tspan x="10" y="794">  │ │ └── asynckit@0.4.0 </tspan>
<tspan x="10" y="810">  │ ├─┬ har-validator@2.0.6 </tspan>
<tspan x="10" y="826">  │ │ ├─┬ chalk@1.1.3 </tspan>
<tspan x="10" y="842">  │ │ │ ├── ansi-styles@2.2.1 </tspan>
<tspan x="10" y="858">  │ │ │ ├── escape-string-regexp@1.0.5 </tspan>
<tspan x="10" y="874">  │ │ │ ├─┬ has-ansi@2.0.0 </tspan>
<tspan x="10" y="890">  │ │ │ │ └── ansi-regex@2.1.1 </tspan>
<tspan x="10" y="906">  │ │ │ ├── strip-ansi@3.0.1 </tspan>
<tspan x="10" y="922">  │ │ │ └── supports-color@2.0.0 </tspan>
<tspan x="10" y="938">  │ │ ├─┬ commander@2.9.0 </tspan>
<tspan x="10" y="954">  │ │ │ └── graceful-readlink@1.0.1 </tspan>
<tspan x="10" y="970">  │ │ ├─┬ is-my-json-valid@2.16.0 </tspan>
<tspan x="10" y="986">  │ │ │ ├── generate-function@2.0.0 </tspan>
<tspan x="10" y="1002">  │ │ │ ├─┬ generate-object-property@1.2.0 </tspan>
<tspan x="10" y="1018">  │ │ │ │ └── is-property@1.0.2 </tspan>
<tspan x="10" y="1034">  │ │ │ └── jsonpointer@4.0.1 </tspan>
<tspan x="10" y="1050">  │ │ └─┬ pinkie-promise@2.0.1 </tspan>
<tspan x="10" y="1066">  │ │   └── pinkie@2.0.4 </tspan>
<tspan x="10" y="1082">  │ ├─┬ hawk@3.1.3 </tspan>
<tspan x="10" y="1098">  │ │ ├── boom@2.10.1 </tspan>
<tspan x="10" y="1114">  │ │ ├── cryptiles@2.0.5 </tspan>
<tspan x="10" y="1130">  │ │ ├── hoek@2.16.3 </tspan>
<tspan x="10" y="1146">  │ │ └── sntp@1.0.9 </tspan>
<tspan x="10" y="1162">  │ ├─┬ http-signature@1.1.1 </tspan>
<tspan x="10" y="1178">  │ │ ├── assert-plus@0.2.0 </tspan>
<tspan x="10" y="1194">  │ │ ├─┬ jsprim@1.4.0 </tspan>
<tspan x="10" y="1210">  │ │ │ ├── assert-plus@1.0.0 </tspan>
<tspan x="10" y="1226">  │ │ │ ├── extsprintf@1.0.2 </tspan>
<tspan x="10" y="1242">  │ │ │ ├── json-schema@0.2.3 </tspan>
<tspan x="10" y="1258">  │ │ │ └── verror@1.3.6 </tspan>
<tspan x="10" y="1274">  │ │ └─┬ sshpk@1.11.0 </tspan>
<tspan x="10" y="1290">  │ │   ├── asn1@0.2.3 </tspan>
<tspan x="10" y="1306">  │ │   ├── assert-plus@1.0.0 </tspan>
<tspan x="10" y="1322">  │ │   ├── bcrypt-pbkdf@1.0.1 </tspan>
<tspan x="10" y="1338">  │ │   ├─┬ dashdash@1.14.1 </tspan>
<tspan x="10" y="1354">  │ │   │ └── assert-plus@1.0.0 </tspan>
<tspan x="10" y="1370">  │ │   ├── ecc-jsbn@0.1.1 </tspan>
<tspan x="10" y="1386">  │ │   ├─┬ getpass@0.1.6 </tspan>
<tspan x="10" y="1402">  │ │   │ └── assert-plus@1.0.0 </tspan>
<tspan x="10" y="1418">  │ │   ├── jodid25519@1.0.2 </tspan>
<tspan x="10" y="1434">  │ │   ├── jsbn@0.1.1 </tspan>
<tspan x="10" y="1450">  │ │   └── tweetnacl@0.14.5 </tspan>
<tspan x="10" y="1466">  │ ├── is-typedarray@1.0.0 </tspan>
<tspan x="10" y="1482">  │ ├── isstream@0.1.2 </tspan>
<tspan x="10" y="1498">  │ ├── json-stringify-safe@5.0.1 </tspan>
<tspan x="10" y="1514">  │ ├─┬ mime-types@2.1.15 </tspan>
<tspan x="10" y="1530">  │ │ └── mime-db@1.27.0 </tspan>
<tspan x="10" y="1546">  │ ├── oauth-sign@0.8.2 </tspan>
<tspan x="10" y="1562">  │ ├── qs@6.3.2 </tspan>
<tspan x="10" y="1578">  │ ├── stringstream@0.0.5 </tspan>
<tspan x="10" y="1594">  │ ├─┬ tough-cookie@2.3.2 </tspan>
<tspan x="10" y="1610">  │ │ └── punycode@1.4.1 </tspan>
<tspan x="10" y="1626">  │ ├── tunnel-agent@0.4.3 </tspan>
<tspan x="10" y="1642">  │ └── uuid@3.0.1 </tspan>
<tspan x="10" y="1658">  ├─┬ underscore.string@3.3.4 </tspan>
<tspan x="10" y="1674">  │ ├── sprintf-js@1.0.3 </tspan>
<tspan x="10" y="1690">  │ └── util-deprecate@1.0.2 </tspan>
<tspan x="10" y="1706">  └── vargs@0.1.0</tspan>
</text>
</svg>
