<svg height="1982" width="720" xmlns="http://www.w3.org/2000/svg">
<rect height="1982" fill="#555" width="720"></rect>
<text fill="#7f7" font-family="Courier New" font-size="12" xml:space="preserve">
<tspan x="10" y="26"></tspan>
<tspan x="10" y="42">&gt; npmdoc-wd@0.0.1 test /home/travis/build/npmdoc/node-npmdoc-wd</tspan>
<tspan x="10" y="58">&gt; (set -e; export PORT=$(utility2 shServerPortRandom); utility2 test test.js)</tspan>
<tspan x="10" y="74"></tspan>
<tspan x="10" y="90"></tspan>
<tspan x="10" y="106">[MODE_BUILD=npmTest] - 2017-04-04T18:43:59Z - npm-testing /home/travis/build/npmdoc/node-npmdoc-\</tspan>
<tspan x="10" y="122">wd</tspan>
<tspan x="10" y="138"></tspan>
<tspan x="10" y="154"></tspan>
<tspan x="10" y="170">covering $ /home/travis/.nvm/versions/node/v6.10.2/bin/node /home/travis/build/npmdoc/node-npmdo\</tspan>
<tspan x="10" y="186">c-wd/test.js</tspan>
<tspan x="10" y="202">merging file:///home/travis/build/npmdoc/node-npmdoc-wd/tmp/build/test-report.json to test-repor\</tspan>
<tspan x="10" y="218">t</tspan>
<tspan x="10" y="234">&gt; server listening on http-port 56671</tspan>
<tspan x="10" y="250">created apidoc file:///home/travis/build/npmdoc/node-npmdoc-wd/tmp/build/apidoc.html</tspan>
<tspan x="10" y="266"></tspan>
<tspan x="10" y="282"></tspan>
<tspan x="10" y="298">browserTest - created electron entry-page /home/travis/build/npmdoc/node-npmdoc-wd/tmp/electron.\</tspan>
<tspan x="10" y="314">15b3a47f53b0.768c4fe294af7.html</tspan>
<tspan x="10" y="330"></tspan>
<tspan x="10" y="346">Xlib:  extension "RANDR" missing on display ":99.0".</tspan>
<tspan x="10" y="362">merging file:///home/travis/build/npmdoc/node-npmdoc-wd/tmp/build/test-report.json to test-repor\</tspan>
<tspan x="10" y="378">t</tspan>
<tspan x="10" y="394">Xlib:  extension "RANDR" missing on display ":99.0".</tspan>
<tspan x="10" y="410">[6576:0404/184406:WARNING:audio_manager.cc(314)] Multiple instances of AudioManager detected</tspan>
<tspan x="10" y="426">[6576:0404/184406:WARNING:audio_manager.cc(275)] Multiple instances of AudioManager detected</tspan>
<tspan x="10" y="442">[6594:0404/184406:ERROR:sandbox_linux.cc(343)] InitializeSandbox() called with multiple threads \</tspan>
<tspan x="10" y="458">in process gpu-process. </tspan>
<tspan x="10" y="474"></tspan>
<tspan x="10" y="490">browserTest - opened url /home/travis/build/npmdoc/node-npmdoc-wd/tmp/build/apidoc.html</tspan>
<tspan x="10" y="506"></tspan>
<tspan x="10" y="522">[node test-case 1 of 6 passed] - testCase_buildLib_default</tspan>
<tspan x="10" y="538">[node test-case 2 of 6 passed] - testCase_buildReadme_default</tspan>
<tspan x="10" y="554">[node test-case 3 of 6 passed] - testCase_buildTest_default</tspan>
<tspan x="10" y="570"></tspan>
<tspan x="10" y="586">browserTest - created electron entry-page /home/travis/build/npmdoc/node-npmdoc-wd/tmp/electron.\</tspan>
<tspan x="10" y="602">15b3a4812130.c3e5e2fc5d3c5.html</tspan>
<tspan x="10" y="618"></tspan>
<tspan x="10" y="634">Xlib:  extension "RANDR" missing on display ":99.0".</tspan>
<tspan x="10" y="650">&gt; server listening on http-port 65270</tspan>
<tspan x="10" y="666">merging file:///home/travis/build/npmdoc/node-npmdoc-wd/tmp/build/test-report.json to test-repor\</tspan>
<tspan x="10" y="682">t</tspan>
<tspan x="10" y="698">Xlib:  extension "RANDR" missing on display ":99.0".</tspan>
<tspan x="10" y="714">[6651:0404/184414:WARNING:audio_manager.cc(314)] Multiple instances of AudioManager detected</tspan>
<tspan x="10" y="730">[6651:0404/184414:WARNING:audio_manager.cc(275)] Multiple instances of AudioManager detected</tspan>
<tspan x="10" y="746">[6681:0404/184414:ERROR:sandbox_linux.cc(343)] InitializeSandbox() called with multiple threads \</tspan>
<tspan x="10" y="762">in process gpu-process. </tspan>
<tspan x="10" y="778">[6651:0404/184414:ERROR:browser_gpu_channel_host_factory.cc(131)] Failed to create channel.</tspan>
<tspan x="10" y="794"></tspan>
<tspan x="10" y="810">browserTest - opened url http://127.0.0.1:56671?modeTest=1</tspan>
<tspan x="10" y="826"></tspan>
<tspan x="10" y="842">[6651:0404/184415:INFO:CONSOLE(245)] "----------|-----------|-----------|-----------|-----------\</tspan>
<tspan x="10" y="858">|</tspan>
<tspan x="10" y="874">File      |   % Stmts |% Branches |   % Funcs |   % Lines |</tspan>
<tspan x="10" y="890">----------|-----------|-----------|-----------|-----------|</tspan>
<tspan x="10" y="906">----------|-----------|-----------|-----------|-----------|</tspan>
<tspan x="10" y="922">All files |       100 |       100 |       100 |       100 |</tspan>
<tspan x="10" y="938">----------|-----------|-----------|-----------|-----------|</tspan>
<tspan x="10" y="954">", source: file:///home/travis/build/npmdoc/node-npmdoc-wd/tmp/electron.15b3a4812130.c3e5e2fc5d3\</tspan>
<tspan x="10" y="970">c5.html (245)</tspan>
<tspan x="10" y="986">[6651:0404/184415:INFO:CONSOLE(245)] "created coverage file:///tmp/build/coverage.html/index.htm\</tspan>
<tspan x="10" y="1002">l", source: file:///home/travis/build/npmdoc/node-npmdoc-wd/tmp/electron.15b3a4812130.c3e5e2fc5d\</tspan>
<tspan x="10" y="1018">3c5.html (245)</tspan>
<tspan x="10" y="1034"></tspan>
<tspan x="10" y="1050">browserTest - created screenCapture file:///home/travis/build/npmdoc/node-npmdoc-wd/tmp/build/sc\</tspan>
<tspan x="10" y="1066">reenCapture.npmTest.browser._2Fhome_2Ftravis_2Fbuild_2Fnpmdoc_2Fnode-npmdoc-wd_2Ftmp_2Fbuild_2Fa\</tspan>
<tspan x="10" y="1082">pidoc.html.png</tspan>
<tspan x="10" y="1098"></tspan>
<tspan x="10" y="1114">browserTest - created screenCapture file:///home/travis/build/npmdoc/node-npmdoc-wd/tmp/build/sc\</tspan>
<tspan x="10" y="1130">reenCapture.npmTest.browser._2Fhome_2Ftravis_2Fbuild_2Fnpmdoc_2Fnode-npmdoc-wd_2Ftmp_2Fbuild_2Fa\</tspan>
<tspan x="10" y="1146">pidoc.html.html</tspan>
<tspan x="10" y="1162"></tspan>
<tspan x="10" y="1178">browserTest - exit-code 0 - /home/travis/build/npmdoc/node-npmdoc-wd/tmp/build/apidoc.html</tspan>
<tspan x="10" y="1194"></tspan>
<tspan x="10" y="1210">[node test-case 4 of 6 passed] - testCase_buildApidoc_default</tspan>
<tspan x="10" y="1226">[node test-case 5 of 6 passed] - testCase_buildApp_default</tspan>
<tspan x="10" y="1242"></tspan>
<tspan x="10" y="1258">browserTest - created screenCapture file:///home/travis/build/npmdoc/node-npmdoc-wd/tmp/build/sc\</tspan>
<tspan x="10" y="1274">reenCapture.npmTest.browser..png</tspan>
<tspan x="10" y="1290"></tspan>
<tspan x="10" y="1306">browserTest - created screenCapture file:///home/travis/build/npmdoc/node-npmdoc-wd/tmp/build/sc\</tspan>
<tspan x="10" y="1322">reenCapture.npmTest.browser..html</tspan>
<tspan x="10" y="1338"></tspan>
<tspan x="10" y="1354">browserTest - exit-code 0 - http://127.0.0.1:56671?modeTest=1</tspan>
<tspan x="10" y="1370"></tspan>
<tspan x="10" y="1386"></tspan>
<tspan x="10" y="1402">browserTest - merged coverage from /home/travis/build/npmdoc/node-npmdoc-wd/tmp/coverage.npmTest\</tspan>
<tspan x="10" y="1418">.browser.%2F.json</tspan>
<tspan x="10" y="1434"></tspan>
<tspan x="10" y="1450"></tspan>
<tspan x="10" y="1466">browserTest - merging test-report from /home/travis/build/npmdoc/node-npmdoc-wd/tmp/test-report.\</tspan>
<tspan x="10" y="1482">npmTest.browser.%2F.json</tspan>
<tspan x="10" y="1498"></tspan>
<tspan x="10" y="1514">[node test-case 6 of 6 passed] - testCase_webpage_default</tspan>
<tspan x="10" y="1530">-----------------------|-----------|-----------|-----------|-----------|</tspan>
<tspan x="10" y="1546">File                   |   % Stmts |% Branches |   % Funcs |   % Lines |</tspan>
<tspan x="10" y="1562">-----------------------|-----------|-----------|-----------|-----------|</tspan>
<tspan x="10" y="1578">   node-npmdoc-wd/     |       100 |       100 |       100 |       100 |</tspan>
<tspan x="10" y="1594">      example.js       |       100 |       100 |       100 |       100 |</tspan>
<tspan x="10" y="1610">      lib.npmdoc_wd.js |       100 |       100 |       100 |       100 |</tspan>
<tspan x="10" y="1626">      test.js          |       100 |       100 |       100 |       100 |</tspan>
<tspan x="10" y="1642">-----------------------|-----------|-----------|-----------|-----------|</tspan>
<tspan x="10" y="1658">All files              |       100 |       100 |       100 |       100 |</tspan>
<tspan x="10" y="1674">-----------------------|-----------|-----------|-----------|-----------|</tspan>
<tspan x="10" y="1690"></tspan>
<tspan x="10" y="1706">created coverage file:///home/travis/build/npmdoc/node-npmdoc-wd/tmp/build/coverage.html/index.h\</tspan>
<tspan x="10" y="1722">tml</tspan>
<tspan x="10" y="1738">merging file:///home/travis/build/npmdoc/node-npmdoc-wd/tmp/build/test-report.json to test-repor\</tspan>
<tspan x="10" y="1754">t</tspan>
<tspan x="10" y="1770"></tspan>
<tspan x="10" y="1786">-------------------------------------------------------</tspan>
<tspan x="10" y="1802">| test-report - buildNpmdoc - node - linux v6.10.2 - 2017-04-04T18:43:15.156Z</tspan>
<tspan x="10" y="1818">|   67961 ms            0 failed        6 passed      |</tspan>
<tspan x="10" y="1834">-------------------------------------------------------</tspan>
<tspan x="10" y="1850"></tspan>
<tspan x="10" y="1866">created test-report file:///home/travis/build/npmdoc/node-npmdoc-wd/tmp/build/test-report.html</tspan>
<tspan x="10" y="1882"></tspan>
<tspan x="10" y="1898"></tspan>
<tspan x="10" y="1914">npmTest - 0 failed tests</tspan>
<tspan x="10" y="1930"></tspan>
<tspan x="10" y="1946"></tspan>
<tspan x="10" y="1962">[MODE_BUILD=npmTest] - 2017-04-04T18:44:26Z - EXIT_CODE - 0</tspan>
</text>
</svg>
